<svg width="80" height="27" viewBox="0 0 400 135" fill="none" xmlns="http://www.w3.org/2000/svg"><path d="M47.5021 69.592C48.3341 69.592 48.9741 69.976 49.4221 70.744C49.9341 71.512 50.1901 72.568 50.1901 73.912C50.1901 76.472 49.5821 78.456 48.3661 79.864C45.6141 83.256 42.6061 86.04 39.3421 88.216C36.0781 90.392 32.3341 91.48 28.1101 91.48C15.0541 91.48 8.52613 82.296 8.52613 63.928C8.52613 61.112 8.62213 58.264 8.81413 55.384H5.07013C3.15013 55.384 1.83813 55.032 1.13413 54.328C0.494125 53.624 0.174125 52.504 0.174125 50.968C0.174125 47.384 1.61413 45.592 4.49413 45.592H9.96613C11.0541 38.552 12.7181 32.12 14.9581 26.296C17.1981 20.472 19.8861 15.832 23.0221 12.376C26.2221 8.92 29.6461 7.192 33.2941 7.192C35.9821 7.192 38.0941 8.376 39.6301 10.744C41.1661 13.112 41.9341 16.088 41.9341 19.672C41.9341 29.592 37.7741 38.232 29.4541 45.592H40.2061C41.2301 45.592 41.9661 45.816 42.4141 46.264C42.8621 46.712 43.0861 47.544 43.0861 48.76C43.0861 53.176 39.4701 55.384 32.2381 55.384H20.5261C20.3981 58.584 20.3341 61.08 20.3341 62.872C20.3341 69.528 21.1021 74.2 22.6381 76.888C24.2381 79.576 26.7341 80.92 30.1261 80.92C32.8781 80.92 35.3101 80.088 37.4221 78.424C39.5341 76.76 42.0301 74.264 44.9101 70.936C45.6781 70.04 46.5421 69.592 47.5021 69.592ZM30.7021 16.408C29.7421 16.408 28.6541 17.624 27.4381 20.056C26.2861 22.424 25.1661 25.752 24.0781 30.04C23.0541 34.264 22.1901 38.968 21.4861 44.152C25.2621 40.888 28.0781 37.24 29.9341 33.208C31.8541 29.112 32.8141 25.4 32.8141 22.072C32.8141 18.296 32.1101 16.408 30.7021 16.408ZM49.1896 91.48C46.7576 91.48 45.0296 90.2 44.0056 87.64C43.0456 85.08 42.5656 80.984 42.5656 75.352C42.5656 67.032 43.7496 59.128 46.1176 51.64C46.6936 49.784 47.6216 48.44 48.9016 47.608C50.2456 46.712 52.1016 46.264 54.4696 46.264C55.7496 46.264 56.6456 46.424 57.1576 46.744C57.6696 47.064 57.9256 47.672 57.9256 48.568C57.9256 49.592 57.4456 51.896 56.4856 55.48C55.8456 58.04 55.3336 60.28 54.9496 62.2C54.5656 64.12 54.2456 66.488 53.9896 69.304C56.1016 63.8 58.4696 59.32 61.0936 55.864C63.7176 52.408 66.2776 49.944 68.7736 48.472C71.3336 47 73.6696 46.264 75.7816 46.264C79.9416 46.264 82.0216 48.344 82.0216 52.504C82.0216 53.336 81.7336 55.352 81.1576 58.552C80.6456 61.112 80.3896 62.712 80.3896 63.352C80.3896 65.592 81.1896 66.712 82.7896 66.712C84.5816 66.712 86.8856 65.304 89.7016 62.488C90.5336 61.656 91.3976 61.24 92.2936 61.24C93.1256 61.24 93.7656 61.624 94.2136 62.392C94.7256 63.096 94.9816 64.056 94.9816 65.272C94.9816 67.64 94.3416 69.496 93.0616 70.84C91.2696 72.696 89.1576 74.296 86.7256 75.64C84.3576 76.92 81.8296 77.56 79.1416 77.56C75.7496 77.56 73.1576 76.696 71.3656 74.968C69.6376 73.24 68.7736 70.904 68.7736 67.96C68.7736 67 68.8696 66.04 69.0616 65.08C69.1896 63.8 69.2536 62.936 69.2536 62.488C69.2536 61.464 68.9016 60.952 68.1976 60.952C67.2376 60.952 65.9576 62.04 64.3576 64.216C62.8216 66.328 61.2856 69.144 59.7496 72.664C58.2136 76.184 56.9656 79.896 56.0056 83.8C55.3016 86.808 54.4696 88.856 53.5096 89.944C52.6136 90.968 51.1736 91.48 49.1896 91.48ZM95.8531 91.48C92.9731 91.48 90.6051 90.168 88.7491 87.544C86.9571 84.856 86.0611 81.528 86.0611 77.56C86.0611 72.76 86.3811 68.376 87.0211 64.408C87.6611 60.376 88.7171 56.12 90.1891 51.64C90.8291 49.72 91.7251 48.344 92.8771 47.512C94.0291 46.68 95.8531 46.264 98.3491 46.264C99.7571 46.264 100.717 46.488 101.229 46.936C101.805 47.384 102.093 48.056 102.093 48.952C102.093 49.464 101.741 51.192 101.037 54.136C100.397 56.504 99.8851 58.648 99.5011 60.568C98.2211 67.288 97.5811 71.768 97.5811 74.008C97.5811 75.352 97.7411 76.312 98.0611 76.888C98.3811 77.4 98.8931 77.656 99.5971 77.656C100.557 77.656 101.741 76.696 103.149 74.776C104.621 72.856 106.157 69.944 107.757 66.04C109.421 62.136 111.021 57.336 112.557 51.64C113.069 49.72 113.837 48.344 114.861 47.512C115.949 46.68 117.549 46.264 119.661 46.264C121.133 46.264 122.157 46.456 122.733 46.84C123.309 47.16 123.597 47.8 123.597 48.76C123.597 50.36 122.797 54.744 121.197 61.912C119.405 70.104 118.509 75.16 118.509 77.08C118.509 78.296 118.765 79.256 119.277 79.96C119.789 80.6 120.461 80.92 121.293 80.92C122.573 80.92 124.077 80.152 125.805 78.616C127.597 77.016 129.965 74.456 132.909 70.936C133.677 70.04 134.541 69.592 135.501 69.592C136.333 69.592 136.973 69.976 137.421 70.744C137.933 71.512 138.189 72.568 138.189 73.912C138.189 76.472 137.581 78.456 136.365 79.864C133.613 83.256 130.637 86.04 127.437 88.216C124.301 90.392 120.717 91.48 116.685 91.48C113.613 91.48 111.341 90.296 109.869 87.928C108.461 85.56 107.757 82.232 107.757 77.944C106.669 82.296 105.037 85.656 102.861 88.024C100.685 90.328 98.3491 91.48 95.8531 91.48ZM166.789 69.592C167.621 69.592 168.261 69.976 168.709 70.744C169.221 71.512 169.477 72.568 169.477 73.912C169.477 76.472 168.869 78.456 167.653 79.864C164.901 83.256 161.893 86.04 158.629 88.216C155.429 90.392 151.781 91.48 147.685 91.48C142.053 91.48 137.861 88.92 135.109 83.8C132.421 78.68 131.077 72.056 131.077 63.928C131.077 56.12 132.069 47.224 134.053 37.24C136.101 27.256 139.077 18.68 142.981 11.512C146.949 4.34399 151.653 0.759995 157.093 0.759995C160.165 0.759995 162.565 2.2 164.293 5.08C166.085 7.896 166.981 11.96 166.981 17.272C166.981 24.888 164.869 33.72 160.645 43.768C156.421 53.816 150.693 63.768 143.461 73.624C143.909 76.248 144.645 78.136 145.669 79.288C146.693 80.376 148.037 80.92 149.701 80.92C152.325 80.92 154.629 80.184 156.613 78.712C158.597 77.176 161.125 74.584 164.197 70.936C164.965 70.04 165.829 69.592 166.789 69.592ZM154.981 10.264C153.509 10.264 151.845 12.92 149.989 18.232C148.133 23.544 146.501 30.136 145.093 38.008C143.685 45.88 142.917 53.432 142.789 60.664C147.333 53.176 150.949 45.688 153.637 38.2C156.325 30.648 157.669 23.768 157.669 17.56C157.669 12.696 156.773 10.264 154.981 10.264ZM198.101 69.592C198.933 69.592 199.573 69.976 200.021 70.744C200.533 71.512 200.789 72.568 200.789 73.912C200.789 76.472 200.181 78.456 198.965 79.864C196.213 83.256 193.205 86.04 189.941 88.216C186.741 90.392 183.093 91.48 178.997 91.48C173.365 91.48 169.173 88.92 166.421 83.8C163.733 78.68 162.389 72.056 162.389 63.928C162.389 56.12 163.381 47.224 165.365 37.24C167.413 27.256 170.389 18.68 174.293 11.512C178.261 4.34399 182.965 0.759995 188.405 0.759995C191.477 0.759995 193.877 2.2 195.605 5.08C197.397 7.896 198.293 11.96 198.293 17.272C198.293 24.888 196.181 33.72 191.957 43.768C187.733 53.816 182.005 63.768 174.773 73.624C175.221 76.248 175.957 78.136 176.981 79.288C178.005 80.376 179.349 80.92 181.013 80.92C183.637 80.92 185.941 80.184 187.925 78.712C189.909 77.176 192.437 74.584 195.509 70.936C196.277 70.04 197.141 69.592 198.101 69.592ZM186.293 10.264C184.821 10.264 183.157 12.92 181.301 18.232C179.445 23.544 177.813 30.136 176.405 38.008C174.997 45.88 174.229 53.432 174.101 60.664C178.645 53.176 182.261 45.688 184.949 38.2C187.637 30.648 188.981 23.768 188.981 17.56C188.981 12.696 188.085 10.264 186.293 10.264ZM242.182 69.784C243.014 69.784 243.654 70.2 244.102 71.032C244.614 71.8 244.87 72.792 244.87 74.008C244.87 75.48 244.646 76.632 244.198 77.464C243.75 78.296 243.046 79.032 242.086 79.672L223.654 92.056C221.222 105.304 218.022 115.704 214.054 123.256C210.15 130.872 205.158 134.68 199.078 134.68C195.814 134.68 193.158 133.656 191.11 131.608C189.062 129.624 188.038 127 188.038 123.736C188.038 120.728 188.71 117.656 190.054 114.52C191.462 111.384 194.022 107.768 197.734 103.672C201.51 99.64 206.822 95 213.67 89.752L213.958 87.544C214.406 85.176 214.918 81.784 215.494 77.368C214.214 81.976 212.422 85.496 210.118 87.928C207.814 90.296 205.382 91.48 202.822 91.48C199.942 91.48 197.574 90.168 195.718 87.544C193.926 84.856 193.03 81.528 193.03 77.56C193.03 72.76 193.35 68.376 193.99 64.408C194.63 60.376 195.686 56.12 197.158 51.64C197.798 49.72 198.694 48.344 199.846 47.512C200.998 46.68 202.822 46.264 205.318 46.264C206.726 46.264 207.686 46.488 208.198 46.936C208.774 47.384 209.062 48.056 209.062 48.952C209.062 49.464 208.71 51.192 208.006 54.136C207.366 56.504 206.854 58.648 206.47 60.568C205.958 63.192 205.51 65.72 205.126 68.152C204.742 70.52 204.55 72.472 204.55 74.008C204.55 76.44 205.222 77.656 206.566 77.656C207.526 77.656 208.71 76.696 210.118 74.776C211.59 72.856 213.126 69.944 214.726 66.04C216.39 62.136 217.99 57.336 219.526 51.64C220.038 49.72 220.806 48.344 221.83 47.512C222.918 46.68 224.518 46.264 226.63 46.264C228.102 46.264 229.126 46.456 229.702 46.84C230.278 47.224 230.566 47.864 230.566 48.76C230.566 50.36 229.734 55.864 228.07 65.272L225.574 80.728C230.502 77.016 235.302 73.624 239.974 70.552C240.806 70.04 241.542 69.784 242.182 69.784ZM200.134 125.368C201.734 125.368 203.526 123.512 205.51 119.8C207.494 116.088 209.478 109.912 211.462 101.272C206.534 105.432 202.95 109.208 200.71 112.6C198.534 116.056 197.446 119.064 197.446 121.624C197.446 122.712 197.638 123.608 198.022 124.312C198.47 125.016 199.174 125.368 200.134 125.368ZM275.351 69.592C276.183 69.592 276.823 69.976 277.271 70.744C277.783 71.512 278.039 72.568 278.039 73.912C278.039 76.472 277.431 78.456 276.215 79.864C273.463 83.256 270.455 86.04 267.191 88.216C263.991 90.392 260.343 91.48 256.247 91.48C250.615 91.48 246.423 88.92 243.671 83.8C240.983 78.68 239.639 72.056 239.639 63.928C239.639 56.12 240.631 47.224 242.615 37.24C244.663 27.256 247.639 18.68 251.543 11.512C255.511 4.34399 260.215 0.759995 265.655 0.759995C268.727 0.759995 271.127 2.2 272.855 5.08C274.647 7.896 275.543 11.96 275.543 17.272C275.543 24.888 273.431 33.72 269.207 43.768C264.983 53.816 259.255 63.768 252.023 73.624C252.471 76.248 253.207 78.136 254.231 79.288C255.255 80.376 256.599 80.92 258.263 80.92C260.887 80.92 263.191 80.184 265.175 78.712C267.159 77.176 269.687 74.584 272.759 70.936C273.527 70.04 274.391 69.592 275.351 69.592ZM263.543 10.264C262.071 10.264 260.407 12.92 258.551 18.232C256.695 23.544 255.063 30.136 253.655 38.008C252.247 45.88 251.479 53.432 251.351 60.664C255.895 53.176 259.511 45.688 262.199 38.2C264.887 30.648 266.231 23.768 266.231 17.56C266.231 12.696 265.335 10.264 263.543 10.264ZM281.15 91.48C277.182 91.48 274.014 90.04 271.646 87.16C269.278 84.28 268.094 80.504 268.094 75.832C268.094 70.712 269.278 65.88 271.646 61.336C274.014 56.728 277.15 53.048 281.054 50.296C285.022 47.48 289.214 46.072 293.63 46.072C295.038 46.072 295.966 46.36 296.414 46.936C296.926 47.448 297.342 48.408 297.662 49.816C299.006 49.56 300.414 49.432 301.886 49.432C305.022 49.432 306.59 50.552 306.59 52.792C306.59 54.136 306.11 57.336 305.15 62.392C303.678 69.752 302.942 74.872 302.942 77.752C302.942 78.712 303.166 79.48 303.614 80.056C304.126 80.632 304.766 80.92 305.534 80.92C306.75 80.92 308.222 80.152 309.95 78.616C311.678 77.016 314.014 74.456 316.958 70.936C317.726 70.04 318.59 69.592 319.55 69.592C320.382 69.592 321.022 69.976 321.47 70.744C321.982 71.512 322.238 72.568 322.238 73.912C322.238 76.472 321.63 78.456 320.414 79.864C317.79 83.128 315.006 85.88 312.062 88.12C309.118 90.36 306.27 91.48 303.518 91.48C301.406 91.48 299.454 90.776 297.662 89.368C295.934 87.896 294.622 85.912 293.726 83.416C290.398 88.792 286.206 91.48 281.15 91.48ZM284.606 81.784C286.014 81.784 287.358 80.952 288.638 79.288C289.918 77.624 290.846 75.416 291.422 72.664L294.974 55C292.286 55.064 289.79 56.088 287.486 58.072C285.246 59.992 283.454 62.552 282.11 65.752C280.766 68.952 280.094 72.344 280.094 75.928C280.094 77.912 280.478 79.384 281.246 80.344C282.078 81.304 283.198 81.784 284.606 81.784ZM321.252 91.48C318.82 91.48 317.092 90.2 316.068 87.64C315.108 85.08 314.628 80.984 314.628 75.352C314.628 67.032 315.812 59.128 318.18 51.64C318.756 49.784 319.684 48.44 320.964 47.608C322.308 46.712 324.164 46.264 326.532 46.264C327.812 46.264 328.708 46.424 329.22 46.744C329.732 47.064 329.988 47.672 329.988 48.568C329.988 49.592 329.508 51.896 328.548 55.48C327.908 58.04 327.396 60.28 327.012 62.2C326.628 64.12 326.308 66.488 326.052 69.304C328.164 63.8 330.532 59.32 333.156 55.864C335.78 52.408 338.34 49.944 340.836 48.472C343.396 47 345.732 46.264 347.844 46.264C352.004 46.264 354.084 48.344 354.084 52.504C354.084 55 353.38 59.512 351.972 66.04C350.756 71.608 350.148 75.288 350.148 77.08C350.148 79.64 351.076 80.92 352.932 80.92C354.212 80.92 355.716 80.152 357.444 78.616C359.236 77.016 361.604 74.456 364.548 70.936C365.316 70.04 366.18 69.592 367.14 69.592C367.972 69.592 368.612 69.976 369.06 70.744C369.572 71.512 369.828 72.568 369.828 73.912C369.828 76.472 369.22 78.456 368.004 79.864C365.252 83.256 362.276 86.04 359.076 88.216C355.94 90.392 352.356 91.48 348.324 91.48C345.06 91.48 342.596 90.552 340.932 88.696C339.268 86.776 338.436 84.024 338.436 80.44C338.436 78.648 338.884 75.448 339.78 70.84C340.612 66.808 341.028 64.024 341.028 62.488C341.028 61.464 340.676 60.952 339.972 60.952C339.14 60.952 337.956 62.04 336.42 64.216C334.948 66.328 333.412 69.144 331.812 72.664C330.276 76.184 329.028 79.896 328.068 83.8C327.364 86.808 326.532 88.856 325.572 89.944C324.676 90.968 323.236 91.48 321.252 91.48ZM396.429 72.472C397.261 72.472 397.901 72.856 398.349 73.624C398.861 74.392 399.117 75.448 399.117 76.792C399.117 79.096 398.573 81.08 397.485 82.744C395.693 85.496 393.325 87.64 390.381 89.176C387.501 90.712 384.045 91.48 380.013 91.48C373.869 91.48 369.101 89.656 365.709 86.008C362.317 82.296 360.621 77.304 360.621 71.032C360.621 66.616 361.549 62.52 363.405 58.744C365.261 54.904 367.821 51.864 371.085 49.624C374.413 47.384 378.157 46.264 382.317 46.264C386.029 46.264 389.005 47.384 391.245 49.624C393.485 51.8 394.605 54.776 394.605 58.552C394.605 62.968 393.005 66.776 389.805 69.976C386.669 73.112 381.293 75.608 373.677 77.464C375.213 80.408 377.805 81.88 381.453 81.88C384.077 81.88 386.221 81.272 387.885 80.056C389.613 78.84 391.597 76.792 393.837 73.912C394.605 72.952 395.469 72.472 396.429 72.472ZM380.685 55.672C378.317 55.672 376.301 57.048 374.637 59.8C373.037 62.552 372.237 65.88 372.237 69.784V69.976C376.013 69.08 378.989 67.736 381.165 65.944C383.341 64.152 384.429 62.072 384.429 59.704C384.429 58.488 384.077 57.528 383.373 56.824C382.733 56.056 381.837 55.672 380.685 55.672Z" fill="#FF0000"></path></svg>